<svg xmlns="http://www.w3.org/2000/svg" viewBox="0 0 64 64" width="64" height="64">
  <rect x="8" y="4" width="48" height="56" rx="8" ry="8" fill="#f0f0f0" stroke="#333" stroke-width="2"/>
  <rect x="14" y="12" width="36" height="12" rx="2" ry="2" fill="#fff" stroke="#333" stroke-width="1"/>
  <rect x="14" y="30" width="8" height="8" rx="2" ry="2" fill="#ccc" stroke="#333" stroke-width="1"/>
  <rect x="26" y="30" width="8" height="8" rx="2" ry="2" fill="#ccc" stroke="#333" stroke-width="1"/>
  <rect x="38" y="30" width="8" height="8" rx="2" ry="2" fill="#ccc" stroke="#333" stroke-width="1"/>
  <rect x="14" y="42" width="8" height="8" rx="2" ry="2" fill="#ccc" stroke="#333" stroke-width="1"/>
  <rect x="26" y="42" width="8" height="8" rx="2" ry="2" fill="#ccc" stroke="#333" stroke-width="1"/>
  <rect x="38" y="42" width="8" height="8" rx="2" ry="2" fill="#ccc" stroke="#333" stroke-width="1"/>
  <rect x="14" y="54" width="20" height="8" rx="2" ry="2" fill="#ccc" stroke="#333" stroke-width="1"/>
  <rect x="38" y="54" width="8" height="8" rx="2" ry="2" fill="#ccc" stroke="#333" stroke-width="1"/>
  <rect x="50" y="30" width="8" height="20" rx="2" ry="2" fill="#ff9933" stroke="#333" stroke-width="1"/>
  <rect x="50" y="54" width="8" height="8" rx="2" ry="2" fill="#ff9933" stroke="#333" stroke-width="1"/>
</svg>